<svg width="234" height="142" xmlns="http://www.w3.org/2000/svg" style=""><rect id="backgroundrect" width="100%" height="100%" x="0" y="0" fill="none" stroke="none"/><g class="currentLayer" style=""><title>Layer 1</title><g id="svgGroup" stroke-linecap="round" fill-rule="evenodd" font-size="9pt" stroke="#ffffff" stroke-width="0.25mm" fill="#ffffff" style="stroke-width: 0.25mm;" class="" fill-opacity="1" stroke-opacity="1" opacity="1" filter=""><path d="M157.031005859375,89.06321710348129 L177.83200073242188,89.06321710348129 L204.58999633789062,142.1882171034813 L233.98399353027344,142.1882171034813 L233.98399353027344,140.91821283102036 L203.41799926757812,82.22721093893051 A54.92499923706055,54.92499923706055 0 0 0 212.15899658203125,77.32421106100082 A49.45000076293945,49.45000076293945 0 0 0 214.01400756835938,75.97721093893051 A38.11399841308594,38.11399841308594 0 0 0 222.16799926757812,67.48121637105942 A36.749000549316406,36.749000549316406 0 0 0 226.55999755859375,58.84621423482895 A42.81700134277344,42.81700134277344 0 0 0 227.2949981689453,56.59221261739731 A42.933998107910156,42.933998107910156 0 0 0 228.75599670410156,49.24721521139145 A56.481998443603516,56.481998443603516 0 0 0 229.1020050048828,42.87121194601059 A51.678001403808594,51.678001403808594 0 0 0 228.2969970703125,33.54221338033676 A39.018001556396484,39.018001556396484 0 0 0 225.43899536132812,24.317212998867035 Q221.77699279785156,16.30921357870102 215.03900146484375,10.938213288784027 A44.71699905395508,44.71699905395508 0 0 0 204.61900329589844,4.889213502407074 A55.87699890136719,55.87699890136719 0 0 0 198.63299560546875,2.7832135558128357 A68.42400360107422,68.42400360107422 0 0 0 187.156005859375,0.5332135558128357 A88.7490005493164,88.7490005493164 0 0 0 177.24600219726562,0.0002135634422302246 L129.58999633789062,0.0002135634422302246 L129.58999633789062,142.1882171034813 L157.031005859375,142.1882171034813 L157.031005859375,89.06321710348129 zM86.13300323486328,0.0002135634422302246 L58.10499954223633,65.52821344137192 L30.077999114990234,0.0002135634422302246 L0,0.0002135634422302246 L44.042999267578125,91.79721063375473 L44.14099884033203,142.1882171034813 L71.48400115966797,142.1882171034813 L71.58200073242188,92.96921533346176 L116.30899810791016,0.0002135634422302246 L86.13300323486328,0.0002135634422302246 zM177.343994140625,66.79721063375473 L157.031005859375,66.79721063375473 L157.031005859375,22.266214311122894 L177.24600219726562,22.266214311122894 A40.143001556396484,40.143001556396484 0 0 1 182.27699279785156,22.56621354818344 A29.266000747680664,29.266000747680664 0 0 1 187.30499267578125,23.633212983608246 A23.81999969482422,23.81999969482422 0 0 1 191.531005859375,25.385213792324066 A18.884000778198242,18.884000778198242 0 0 1 194.7270050048828,27.539213120937347 A17.413000106811523,17.413000106811523 0 0 1 199.85000610351562,34.70921319723129 A21.565000534057617,21.565000534057617 0 0 1 199.85400390625,34.71721261739731 A23.985000610351562,23.985000610351562 0 0 1 201.23500061035156,40.02321237325668 A32.354000091552734,32.354000091552734 0 0 1 201.56300354003906,44.72721475362778 Q201.56300354003906,49.41421502828598 200.24400329589844,53.22321313619614 A18.892000198364258,18.892000198364258 0 0 1 197.7530059814453,58.095214784145355 A17.163999557495117,17.163999557495117 0 0 1 196.38699340820312,59.76621240377426 A18.354999542236328,18.354999542236328 0 0 1 190.8979949951172,63.95221322774887 A22.941999435424805,22.941999435424805 0 0 1 188.52499389648438,64.99021142721176 A27.542999267578125,27.542999267578125 0 0 1 182.96200561523438,66.40021508932114 Q180.31900024414062,66.79721063375473 177.343994140625,66.79721063375473 z" vector-effect="non-scaling-stroke" id="svg_1" fill="#ffffff" fill-opacity="1" stroke="#ffffff" stroke-opacity="1" opacity="1" filter=""/></g></g><defs><filter id="f001" inkscape:label="Matte jelly" xmlns:inkscape="http://www.inkscape.org/namespaces/inkscape" x="0" y="0" width="1" height="1" inkscape:menu="ABCs" inkscape:menu-tooltip="Bulging, matte jelly covering" color-interpolation-filters="sRGB">
            <feColorMatrix values="1 0 0 0 0 0 1 0 0 0 0 0 1 0 0 0 0 0 0.85 0" result="result0" in="SourceGraphic"/>
            <feGaussianBlur in="SourceAlpha" stdDeviation="7"/>
            <feSpecularLighting surfaceScale="5" specularConstant=".9" specularExponent="25">
                <feDistantLight elevation="60" azimuth="225"/>
            </feSpecularLighting>
            <feComposite operator="atop" in2="result0"/>
        </filter></defs></svg>